<svg xmlns="http://www.w3.org/2000/svg" viewBox="0 0 22.84 26.75"><defs><style>.cls-1{fill:#78c17c;}.cls-1,.cls-4,.cls-5,.cls-6{fill-rule:evenodd;}.cls-2{fill:#4d443c;}.cls-3{fill:#f9b916;}.cls-4{fill:#fb5845;}.cls-6{fill:#666;}</style></defs><title>1_1</title><g id="Layer_2" data-name="Layer 2"><g id="Layer_1-2" data-name="Layer 1"><path class="cls-1" d="M2,16.66H16.92c.17-.79.23-2.59-1.16-3.15-.76-.31-.27-.44-1.24-.61a15,15,0,0,1-1.65-.61c-.78-.22-2.36,1.08-3,.73-2.42-1.33-2.6-.89-4.59,0-.44.19-1-.44-1.43-.14-1.12.85-1.6,2.8-1.8,3.81"/><path class="cls-2" d="M16.92,16.94H2a.29.29,0,0,1-.22-.34,12.11,12.11,0,0,1,.57-2,4.56,4.56,0,0,1,1.34-2c.33-.25.67-.12,1,0,.19.07.38.15.48.1l.66-.3c1.5-.7,1.93-.9,4.18.33.21.12.74-.11,1.27-.35A2.81,2.81,0,0,1,13,12a4.83,4.83,0,0,1,.8.32,3,3,0,0,0,.82.29c.64.12.75.23.89.38a1,1,0,0,0,.4.25,2.14,2.14,0,0,1,1.22,1.3,4.2,4.2,0,0,1,.11,2.16.29.29,0,0,1-.28.24M2.39,16.37H16.68a3.5,3.5,0,0,0-.13-1.63,1.58,1.58,0,0,0-.9-1,1.44,1.44,0,0,1-.6-.39c-.07-.07-.12-.13-.58-.21a3.42,3.42,0,0,1-1-.33h0a4.49,4.49,0,0,0-.72-.29,2.65,2.65,0,0,0-1.3.38c-.66.29-1.31.58-1.77.33-2-1.09-2.36-.92-3.66-.31l-.67.31a1.16,1.16,0,0,1-.92-.09c-.19-.07-.38-.15-.46-.09a4,4,0,0,0-1.15,1.72A10.77,10.77,0,0,0,2.39,16.37Z"/><path class="cls-3" d="M18.68,16.84a.29.29,0,0,1-.49-.3l4.12-6.7a.29.29,0,1,1,.49.3Z"/><path class="cls-3" d="M17.61,16.88a.29.29,0,0,1-.54-.19l2.7-7.77a.28.28,0,0,1,.54.19Z"/><path class="cls-4" d="M16.12,16.66H4.28A1.6,1.6,0,0,1,5.48,15c.53-.17,1,.43,1.69.33.48-.07.83-.67,1.33-.78s1.12.32,1.63.24a3.91,3.91,0,0,0,2-1,4.87,4.87,0,0,0,1.7.86c.32.07.73-.24,1-.08a3.44,3.44,0,0,1,1.26,2.09"/><path class="cls-2" d="M4.55,16.37h11.2a4.54,4.54,0,0,0-.27-.66,2.14,2.14,0,0,0-.76-.89s-.17,0-.31,0a1.2,1.2,0,0,1-.61.06,4.07,4.07,0,0,1-1.06-.43,6.47,6.47,0,0,1-.55-.35,4.48,4.48,0,0,1-.85.55,3.82,3.82,0,0,1-1.15.37,2,2,0,0,1-.88-.14,1.54,1.54,0,0,0-.73-.11,1.5,1.5,0,0,0-.54.34,1.66,1.66,0,0,1-.82.45,1.88,1.88,0,0,1-1-.21,1,1,0,0,0-.6-.13,1.52,1.52,0,0,0-.78.56,1.26,1.26,0,0,0-.24.55m11.58.57H4.28A.29.29,0,0,1,4,16.7a1.61,1.61,0,0,1,.32-1.21,2.09,2.09,0,0,1,1.07-.77,1.35,1.35,0,0,1,1,.15,1.44,1.44,0,0,0,.75.17,1.28,1.28,0,0,0,.53-.32,1.89,1.89,0,0,1,.78-.45,1.93,1.93,0,0,1,1,.12,1.61,1.61,0,0,0,.63.11,3.24,3.24,0,0,0,1-.32,3.51,3.51,0,0,0,.88-.61.28.28,0,0,1,.38,0A6.4,6.4,0,0,0,13,14a3.51,3.51,0,0,0,.91.37.85.85,0,0,0,.33-.05.9.9,0,0,1,.75,0,2.7,2.7,0,0,1,1,1.13,5.69,5.69,0,0,1,.41,1.13.29.29,0,0,1-.2.35h-.07Z"/><path class="cls-4" d="M20.07,16.52v.06a9.89,9.89,0,1,1-19.78,0v-.06Z"/><path class="cls-2" d="M17,23.37a9.57,9.57,0,0,0,2.81-6.57H.57A9.6,9.6,0,0,0,17,23.37m3.38-6.83v0h0A10.18,10.18,0,0,1,0,16.58v-.06a.29.29,0,0,1,.28-.28H20.07a.29.29,0,0,1,.29.29Z"/><path class="cls-2" d="M2.88,26.75a.29.29,0,1,1,0-.57H17.47a.29.29,0,1,1,0,.57Z"/><path class="cls-2" d="M1,20.66a.29.29,0,0,1,0-.57H19.27a.29.29,0,0,1,0,.57Z"/><path class="cls-2" d="M11.11,2a3.19,3.19,0,0,0-.38-.58A4,4,0,0,1,11,2.75c0,.05,0,.11,0,.17A3.77,3.77,0,0,1,10.88,4v0c-.07.21-.15.42-.24.63s-.17.4-.27.6l-.09.2c-.16.36-.33.73-.47,1.13h0A3.74,3.74,0,0,0,9.56,8h0s0,.09,0,.13a2.55,2.55,0,0,0,.14.72h0a2.54,2.54,0,0,0,.33.64h0v0a3,3,0,0,1-.16-1c0-.06,0-.12,0-.19s0-.11,0-.17v0a6.29,6.29,0,0,1,.69-1.93l.29-.6h0a7.18,7.18,0,0,0,.28-.68,7,7,0,0,0,.2-.68h0a3.34,3.34,0,0,0,0-1.47h0A3.15,3.15,0,0,0,11.11,2M10,0l.31.2.3.24.15.13,0,0,.14.13.26.28v0a3.73,3.73,0,0,1,.46.7,3.69,3.69,0,0,1,.3.8v0A4,4,0,0,1,12,3a3.92,3.92,0,0,1,0,.44,3.87,3.87,0,0,1,0,.44,3.92,3.92,0,0,1-.07.43v0a7.54,7.54,0,0,1-.22.73,7.77,7.77,0,0,1-.3.73l-.29.62a5.89,5.89,0,0,0-.64,1.75v0s0,.09,0,.14,0,.1,0,.16a2.38,2.38,0,0,0,.13.78,6.58,6.58,0,0,0,.58,1.21.29.29,0,0,1-.39.39,3.86,3.86,0,0,1-.65-.47l0,0a4,4,0,0,1-.52-.58h0A3.11,3.11,0,0,1,9.16,9h0A3.11,3.11,0,0,1,9,8.11C9,8.05,9,8,9,8H9a4.38,4.38,0,0,1,.27-1.51c.14-.42.32-.81.49-1.18l.09-.19V5c.09-.18.18-.37.26-.57s.16-.39.23-.6h0a3.1,3.1,0,0,0,.15-1s0-.09,0-.13a3.41,3.41,0,0,0-.28-1.14h0c-.09-.2-.19-.41-.3-.61S9.69.64,9.57.45A.29.29,0,0,1,9.86,0h0Z"/><path class="cls-2" d="M7.45,2a3.16,3.16,0,0,0-.38-.58,4,4,0,0,1,.31,1.3c0,.05,0,.11,0,.17a3.71,3.71,0,0,1,0,.58A3.76,3.76,0,0,1,7.21,4v0c-.07.21-.15.42-.24.63s-.18.4-.27.6l-.09.2c-.16.36-.33.73-.47,1.13h0A3.76,3.76,0,0,0,5.9,8h0s0,.09,0,.13A2.53,2.53,0,0,0,6,8.8H6a2.55,2.55,0,0,0,.33.64h0v0a3,3,0,0,1-.16-1c0-.06,0-.12,0-.19s0-.11,0-.17v0a6.29,6.29,0,0,1,.69-1.93l.29-.6h0a7.26,7.26,0,0,0,.28-.68,6.93,6.93,0,0,0,.2-.68h0a3.35,3.35,0,0,0,.06-1.11,3.4,3.4,0,0,0-.06-.36h0A3.14,3.14,0,0,0,7.45,2M6.3,0l.31.2.3.24.15.13,0,0,.14.13L7.48,1v0a3.76,3.76,0,0,1,.76,1.5v0a3.85,3.85,0,0,1,.07,1.29,3.9,3.9,0,0,1-.07.43v0A7.51,7.51,0,0,1,8,5.06a7.79,7.79,0,0,1-.3.73l-.29.62a5.88,5.88,0,0,0-.64,1.75v0s0,.09,0,.14,0,.1,0,.16a2.4,2.4,0,0,0,.13.78,6.51,6.51,0,0,0,.58,1.21.29.29,0,0,1-.39.39,3.87,3.87,0,0,1-.65-.47l0,0a3.93,3.93,0,0,1-.52-.58h0A3.12,3.12,0,0,1,5.5,9h0a3.11,3.11,0,0,1-.17-.88c0-.05,0-.1,0-.15h0A4.4,4.4,0,0,1,5.6,6.44c.14-.42.32-.81.49-1.18l.09-.19V5c.09-.18.18-.37.26-.57s.16-.39.23-.6h0a3.08,3.08,0,0,0,.15-1s0-.09,0-.13a3.42,3.42,0,0,0-.28-1.14h0c-.09-.2-.19-.41-.3-.61S6,.64,5.91.45A.29.29,0,0,1,6.2,0h0Z"/><path class="cls-2" d="M14.68,2a3.16,3.16,0,0,0-.38-.58,4,4,0,0,1,.31,1.3c0,.05,0,.11,0,.17a3.7,3.7,0,0,1,0,.58,3.74,3.74,0,0,1-.13.55v0c-.07.21-.15.42-.24.63s-.18.4-.27.6l-.09.2c-.16.36-.33.73-.47,1.13h0A3.76,3.76,0,0,0,13.13,8h0s0,.09,0,.13a2.53,2.53,0,0,0,.14.72h0a2.54,2.54,0,0,0,.33.64h0v0A3,3,0,0,1,13.48,9a3,3,0,0,1,0-.49c0-.06,0-.12,0-.19s0-.11,0-.17v0a6.29,6.29,0,0,1,.69-1.93l.29-.6h0a7.28,7.28,0,0,0,.28-.68,7,7,0,0,0,.2-.68h0a3.36,3.36,0,0,0,0-1.47h0A3.14,3.14,0,0,0,14.68,2M13.53,0l.31.2.3.24.15.13,0,0,.14.13.26.28v0a3.76,3.76,0,0,1,.76,1.5v0a3.88,3.88,0,0,1,0,1.73v0a7.56,7.56,0,0,1-.22.73,7.79,7.79,0,0,1-.3.73l-.29.62A5.88,5.88,0,0,0,14,8.15v0s0,.09,0,.14,0,.1,0,.16a2.39,2.39,0,0,0,.13.78,6.53,6.53,0,0,0,.58,1.21.29.29,0,0,1-.39.39,3.86,3.86,0,0,1-.65-.47l0,0a4,4,0,0,1-.52-.58h0a3.12,3.12,0,0,1-.4-.79h0a3.11,3.11,0,0,1-.17-.88c0-.05,0-.1,0-.15h0a4.39,4.39,0,0,1,.27-1.51c.14-.42.32-.81.49-1.18l.09-.19V5c.09-.18.18-.37.26-.57s.16-.39.22-.6h0A3.14,3.14,0,0,0,14,3.41a3.19,3.19,0,0,0,0-.49s0-.09,0-.13a3.42,3.42,0,0,0-.28-1.14h0c-.09-.2-.19-.41-.3-.61s-.21-.39-.33-.58A.29.29,0,0,1,13.43,0h0Z"/><path class="cls-5" d="M19.31,20.38A9.89,9.89,0,0,1,1,20.38Z"/><path class="cls-2" d="M15.5,24.58a9.65,9.65,0,0,0,3.37-3.91H1.48a9.61,9.61,0,0,0,14,3.91m4.07-4.07a10.18,10.18,0,0,1-18.79,0,.29.29,0,0,1,.15-.37l.11,0H19.31a.29.29,0,0,1,.26.41Z"/><path class="cls-2" d="M2.88,26.75a.29.29,0,1,1,0-.57H17.47a.29.29,0,1,1,0,.57Z"/><path class="cls-2" d="M1,20.66a.29.29,0,0,1,0-.57H19.27a.29.29,0,0,1,0,.57Z"/><path class="cls-6" d="M12.51,26.19A9.9,9.9,0,0,1,1,20.35H5.53a9.91,9.91,0,0,0,6.9,5.87l.08,0"/><path class="cls-2" d="M15.5,24.58a9.65,9.65,0,0,0,3.37-3.91H1.48a9.61,9.61,0,0,0,14,3.91m4.07-4.07a10.18,10.18,0,0,1-18.79,0,.29.29,0,0,1,.15-.37l.11,0H19.31a.29.29,0,0,1,.26.41Z"/></g></g></svg>